<?xml version="1.0" ?><svg id="Layer_1" style="enable-background:new 0 0 64 64;" version="1.1" viewBox="0 0 64 64" xml:space="preserve" xmlns="http://www.w3.org/2000/svg" xmlns:xlink="http://www.w3.org/1999/xlink"><style type="text/css">
	.st0{fill:#62BEE7;}
	.st1{fill:#474E5E;}
	.st2{fill:#F3EEE4;}
	.st3{fill:#FFFFFF;}
	.st4{fill:#E8DCCA;}
	.st5{opacity:0.1;fill:#231F20;}
	.st6{fill:#506268;}
	.st7{fill:#EB5151;}
	.st8{fill:#C64444;}
	.st9{fill:#9CCB5B;}
	.st10{fill:#404A4C;}
	.st11{fill:#676767;}
	.st12{fill:#E0E1E5;}
	.st13{fill:#9D9EA0;}
	.st14{fill:#B3B4B7;}
	.st15{opacity:0.1;}
	.st16{fill:#231F20;}
	.st17{fill:#FACC20;}
	.st18{fill:#FDEF34;}
	.st19{fill:#F7A90B;}
	.st20{fill:#20B8EA;}
	.st21{fill:#00A8EA;}
	.st22{fill:#33D3F4;}
	.st23{opacity:0.25;fill:#FFFFFF;}
	.st24{fill:#CACBCE;}
	.st25{fill:#2E3545;}
	.st26{fill:#8DAF4A;}
	.st27{fill:#F9C2AF;}
	.st28{fill:#AFDDF4;}
	.st29{fill:#677177;}
	.st30{fill:#FFEDB3;}
	.st31{fill:#695652;}
	.st32{fill:#30A7BF;}
	.st33{fill:#4D5556;}
	.st34{opacity:0.35;}
	.st35{fill:#FFCB04;}
	.st36{fill:#99E9FA;}
	.st37{opacity:0.2;}
	.st38{opacity:3.000000e-02;}
	.st39{fill:#9ECA5B;}
	.st40{fill:#98BA56;}
	.st41{fill:#40EEFF;}
	.st42{fill:#FF6A52;}
	.st43{opacity:0.1;fill:#FFFFFF;}
	.st44{opacity:0.4;}
	.st45{fill:#57606D;}
	.st46{fill:#BACA5B;}
	.st47{opacity:0.25;}
	.st48{opacity:5.000000e-02;fill:#231F20;}
	.st49{opacity:0.2;fill:#FFFFFF;}
	.st50{opacity:0.3;}
	.st51{fill:#FFD82F;}
	.st52{fill:#F4C121;}
	.st53{fill:#EF9D0A;}
	.st54{fill:#F9E532;}
	.st55{fill:#F4C01E;}
	.st56{fill:#FFE14D;}
	.st57{fill:#B7C156;}
	.st58{fill:#DBA92C;}
	.st59{fill:#363D4D;}
	.st60{fill:#3F4656;}
	.st61{fill:#463E33;}
	.st62{fill:none;}
	.st63{opacity:4.000000e-02;}
	.st64{fill:#4DB6AC;}
	.st65{fill:#CADE49;}
	.st66{fill:#9FD343;}
	.st67{fill:#AAD643;}
	.st68{fill:#82C736;}
	.st69{opacity:0.3;fill:#FFFFFF;}
	.st70{fill:#FFD640;}
	.st71{opacity:0.5;}
	.st72{opacity:0.6;}
</style><g><circle class="st0" cx="32" cy="32" r="32"/><g><g><path class="st17" d="M32.6,51.1v1.8H10.2v-6h17.2C28.8,48.6,30.6,50,32.6,51.1z"/></g><g><path class="st17" d="M24.3,40.9h-14v-6h13.5c0,0.5-0.1,1-0.1,1.5C23.7,38,23.9,39.5,24.3,40.9z"/></g><g><path class="st17" d="M30.6,23.1c-2.2,1.5-4,3.6-5.2,6H10.2v-6H30.6z"/></g><g><rect class="st17" height="6" width="22.4" x="10.2" y="11.1"/></g><g><path class="st18" d="M27.4,46.9H13.2v-6h11C24.9,43.1,26,45.2,27.4,46.9z"/></g><g><path class="st18" d="M25.4,29c-0.9,1.8-1.5,3.8-1.7,6H13.2v-6H25.4z"/></g><g><path class="st18" d="M35.6,17.1v3.6c-1.8,0.5-3.5,1.3-5,2.4H13.2v-6H35.6z"/></g><g><circle class="st17" cx="40" cy="36.5" r="16.4"/></g><g><circle class="st18" cx="40" cy="36.5" r="11.9"/></g><g><g><path class="st8" d="M44.4,37.7c-0.2-0.5-0.7-1.9-3.8-2.5v-3.7c0.7,0.2,1.2,0.7,1.4,1.5c0.2,0.6,0.6,0.9,1.1,0.9      c0.3,0,2.2-0.5,0.3-2.9c-0.3-0.4-0.9-1.1-2.8-1.3v-1.5h-1.1v1.5c-3.5,0.4-3.8,2.6-3.8,3.7c0,3.1,3,3.6,3.8,3.8v4.1      c-1.5-0.3-1.8-1.8-1.9-2.3c-0.2-0.7-0.8-0.7-1.1-0.7c-0.9,0-1.2,0.8-1.2,1.1c0,0.4,0.2,2.2,2.3,3.3c0.5,0.3,1.1,0.4,1.8,0.5      l0,1.4h1.1v-1.4c0.8-0.1,1.6-0.3,2.2-0.7C44.6,41.5,45.1,39.5,44.4,37.7z M39.5,34.9c-0.9-0.4-1.6-0.6-1.6-1.7      c0-0.5,0.2-1.3,1.6-1.7V34.9z M40.7,41.5v-3.9c1.8,0.6,1.9,1.4,1.9,1.9C42.5,40,42.4,41,40.7,41.5z"/></g></g><g><g><rect class="st19" height="1.4" width="1.6" x="39.2" y="21.6"/></g><g><rect class="st19" height="1.4" width="1.6" x="39.2" y="49.9"/></g></g><g><g><g><rect class="st19" height="1.4" width="1.6" x="39.2" y="21.6"/></g><g><rect class="st19" height="1.4" width="1.6" x="39.2" y="49.9"/></g></g><g><g><rect class="st19" height="1.4" transform="matrix(0.9397 -0.342 0.342 0.9397 -5.8057 13.4415)" width="1.6" x="34.4" y="22.5"/></g><g><rect class="st19" height="1.4" transform="matrix(0.9397 -0.342 0.342 0.9397 -14.3094 18.3511)" width="1.6" x="44.1" y="49.1"/></g></g><g><g><rect class="st19" height="1.4" transform="matrix(0.766 -0.6428 0.6428 0.766 -9.2366 25.8992)" width="1.6" x="30.2" y="24.9"/></g><g><rect class="st19" height="1.4" transform="matrix(0.766 -0.6428 0.6428 0.766 -18.9067 42.6483)" width="1.6" x="48.3" y="46.6"/></g></g><g><g><rect class="st19" height="1.4" transform="matrix(0.5 -0.866 0.866 0.5 -11.5582 38.7792)" width="1.6" x="27" y="28.7"/></g><g><rect class="st19" height="1.4" transform="matrix(0.5 -0.866 0.866 0.5 -11.5582 67.0525)" width="1.6" x="51.5" y="42.8"/></g></g><g><g><rect class="st19" height="1.4" transform="matrix(0.1736 -0.9848 0.9848 0.1736 -11.9073 53.8351)" width="1.6" x="25.3" y="33.3"/></g><g><rect class="st19" height="1.4" transform="matrix(0.1736 -0.9848 0.9848 0.1736 6.2665 85.313)" width="1.6" x="53.2" y="38.2"/></g></g><g><g><rect class="st19" height="1.6" transform="matrix(0.9848 -0.1736 0.1736 0.9848 -6.3619 5.128)" width="1.4" x="25.4" y="38.1"/></g><g><rect class="st19" height="1.6" transform="matrix(0.9848 -0.1736 0.1736 0.9848 -5.0864 9.8884)" width="1.4" x="53.3" y="33.2"/></g></g><g><g><rect class="st19" height="1.6" transform="matrix(0.866 -0.5 0.5 0.866 -18.0429 19.735)" width="1.4" x="27.1" y="42.7"/></g><g><rect class="st19" height="1.6" transform="matrix(0.866 -0.5 0.5 0.866 -7.6941 30.0838)" width="1.4" x="51.6" y="28.6"/></g></g><g><g><rect class="st19" height="1.6" transform="matrix(0.6428 -0.766 0.766 0.6428 -25.1721 40.6122)" width="1.4" x="30.3" y="46.5"/></g><g><rect class="st19" height="1.6" transform="matrix(0.6428 -0.766 0.766 0.6428 -2.0887 46.7973)" width="1.4" x="48.4" y="24.8"/></g></g><g><g><rect class="st19" height="1.6" transform="matrix(0.342 -0.9397 0.9397 0.342 -23.5824 65.8244)" width="1.4" x="34.5" y="48.9"/></g><g><rect class="st19" height="1.6" transform="matrix(0.342 -0.9397 0.9397 0.342 7.7463 57.4299)" width="1.4" x="44.2" y="22.4"/></g></g></g><g class="st71"><g class="st72"><g><rect class="st3" height="41.7" width="0.6" x="14.7" y="11.1"/></g><g><rect class="st3" height="41.7" width="1" x="15.7" y="11.1"/></g></g><g class="st72"><g><rect class="st3" height="41.7" width="2.3" x="20.3" y="11.1"/></g></g></g><g class="st50"><path class="st3" d="M51.7,24.9L28.5,48.1c-1.2-1.2-2.3-2.7-3.1-4.2l22-22C49,22.6,50.4,23.7,51.7,24.9z"/><path class="st3" d="M56.4,36.5c0,0.8-0.1,1.7-0.2,2.5L42.5,52.7c-0.8,0.1-1.6,0.2-2.5,0.2c-3.5,0-6.7-1.1-9.3-2.9l22.8-22.8     C55.4,29.8,56.4,33,56.4,36.5z"/></g></g></g></svg>